<?xml version="1.0" encoding="UTF-8"?>
<!DOCTYPE svg PUBLIC "-//W3C//DTD SVG 1.1//EN" "http://www.w3.org/Graphics/SVG/1.1/DTD/svg11.dtd">
<!-- Creator: CorelDRAW -->
<svg xmlns="http://www.w3.org/2000/svg" xml:space="preserve" width="347.373mm" height="69.051mm" version="1.1" style="shape-rendering:geometricPrecision; text-rendering:geometricPrecision; image-rendering:optimizeQuality; fill-rule:evenodd; clip-rule:evenodd"
viewBox="0 0 1945.77 386.78"
 xmlns:xlink="http://www.w3.org/1999/xlink"
 xmlns:xodm="http://www.corel.com/coreldraw/odm/2003">
 <defs>
  <style type="text/css">
   <![CDATA[
    .fil2 {fill:none}
    .fil0 {fill:#FEFEFE;fill-rule:nonzero}
    .fil1 {fill:#FEFEFE;fill-rule:nonzero;fill-opacity:0.501961}
   ]]>
  </style>
 </defs>
 <g id="Слой_x0020_1">
  <metadata id="CorelCorpID_0Corel-Layer"/>
  <path class="fil0" d="M1336.66 2.76l-143.62 193.97 89.29 117.48 -50.35 0 -64.11 -84.25 -103.71 133.76 -50.35 0 128.89 -166.99 -89.29 -117.48 50.35 0 64.11 84.25 118.44 -160.74 50.35 0zm-282.43 116.77l-133.29 0 0 57.06 168.33 -1.01 18.94 21.76 -13.91 19.53 -173.36 0 0 57.06 132.65 -1.93 -30.94 42.21 -141.98 0 0 -234.97 147.78 0 25.79 40.28z"/>
  <path class="fil0" d="M800.88 147.73c0,-7.83 -2.74,-14.49 -8.22,-19.97 -5.48,-5.48 -12.14,-8.22 -19.97,-8.22l-65.79 0 0 57.06 65.79 0c7.83,0 14.49,-2.74 19.97,-8.22 5.48,-5.48 8.22,-12.14 8.22,-19.97l0 -0.67zm27.19 40.95c8.95,6.27 16.11,14.32 21.48,24.17 5.37,9.85 8.06,20.59 8.06,32.22l0 0.67c0,9.4 -1.79,18.29 -5.37,26.69 -3.58,8.39 -8.5,15.66 -14.77,21.82 -6.27,6.15 -13.54,11.02 -21.82,14.6 -8.28,3.58 -17.12,5.37 -26.52,5.37l-66.8 0 16.11 -40.28 50.69 0c7.83,0 14.49,-2.74 19.97,-8.22 5.48,-5.48 8.22,-12.14 8.22,-19.97l0 -0.67c0,-7.83 -2.74,-14.49 -8.22,-19.97 -5.48,-5.48 -12.14,-8.22 -19.97,-8.22l-16.45 0 -65.79 0 0 57.06 0 40.28 -40.28 0 0 -97.34 0 -40.28 0 -97.34 106.07 0c9.4,0 18.29,1.79 26.68,5.37 8.39,3.58 15.66,8.5 21.82,14.77 6.15,6.27 11.02,13.54 14.6,21.82 3.58,8.28 5.37,17.12 5.37,26.52l0 0.67c0,7.61 -1.17,14.83 -3.52,21.65 -2.35,6.82 -5.54,13.03 -9.57,18.63zm-305 -114.46c16.78,0 32.62,3.19 47.5,9.57 14.88,6.38 27.86,15.1 38.94,26.18 11.08,11.08 19.8,24.06 26.18,38.94 6.38,14.88 9.57,30.71 9.57,47.5 0,16.78 -3.19,32.62 -9.57,47.5 -6.38,14.88 -15.11,27.86 -26.18,38.94 -11.08,11.08 -24.06,19.8 -38.94,26.18 -14.88,6.38 -30.71,9.57 -47.5,9.57 -16.78,0 -32.61,-3.19 -47.5,-9.57 -14.88,-6.38 -27.86,-15.11 -38.94,-26.18 -11.08,-11.08 -19.8,-24.06 -26.18,-38.94 -6.38,-14.88 -9.57,-30.71 -9.57,-47.5 0,-16.78 3.19,-32.62 9.57,-47.5 6.38,-14.88 15.11,-27.86 26.18,-38.94 11.08,-11.08 24.06,-19.8 38.94,-26.18 14.88,-6.38 30.71,-9.57 47.5,-9.57zm0 40.28c-10.97,0 -21.37,2.07 -31.22,6.21 -9.85,4.14 -18.69,10.13 -26.52,17.96 -7.83,7.83 -13.82,16.67 -17.96,26.52 -4.14,9.85 -6.21,20.25 -6.21,31.22 0,10.97 2.07,21.43 6.21,31.38 4.14,9.96 10.13,18.85 17.96,26.69 7.83,7.83 16.67,13.76 26.52,17.79 9.85,4.03 20.25,6.04 31.22,6.04 10.97,0 21.43,-2.01 31.39,-6.04 9.96,-4.03 18.85,-9.96 26.69,-17.79 7.83,-7.83 13.76,-16.73 17.79,-26.69 4.03,-9.96 6.04,-20.42 6.04,-31.38 0,-10.96 -2.01,-21.37 -6.04,-31.22 -4.03,-9.85 -9.96,-18.69 -17.79,-26.52 -7.83,-7.83 -16.73,-13.82 -26.69,-17.96 -9.96,-4.14 -20.42,-6.21 -31.39,-6.21zm-217.06 159.44l92.31 0 0 40.28 -92.31 0 -40.28 0 0 -40.28 0 -194.35 40.28 0 0 194.35zm-63.32 -97.68c0.45,3.36 0.84,6.71 1.17,10.07 0.33,3.36 0.5,6.71 0.5,10.07 0,16.78 -3.19,32.62 -9.57,47.5 -6.38,14.88 -15.11,27.86 -26.18,38.94 -11.08,11.08 -24.06,19.8 -38.94,26.18 -14.88,6.38 -30.71,9.57 -47.5,9.57 -16.78,0 -32.62,-3.19 -47.5,-9.57 -14.88,-6.38 -27.86,-15.11 -38.94,-26.18 -11.08,-11.08 -19.8,-24.06 -26.18,-38.94 -6.38,-14.88 -9.57,-30.71 -9.57,-47.5 0,-16.78 3.19,-32.62 9.57,-47.5 6.38,-14.88 15.1,-27.86 26.18,-38.94 11.08,-11.08 24.06,-19.8 38.94,-26.18 14.88,-6.38 30.71,-9.57 47.5,-9.57 17.01,0 32.9,3.19 47.66,9.57 14.77,6.38 27.64,15.16 38.6,26.35l-28.2 28.53c-7.83,-7.83 -16.73,-13.82 -26.69,-17.96 -9.96,-4.14 -20.42,-6.21 -31.38,-6.21 -10.97,0 -21.37,2.07 -31.22,6.21 -9.85,4.14 -18.69,10.13 -26.52,17.96 -7.83,7.83 -13.82,16.67 -17.96,26.52 -4.14,9.85 -6.21,20.25 -6.21,31.22 0,10.97 2.07,21.43 6.21,31.38 4.14,9.96 10.13,18.85 17.96,26.69 7.83,7.83 16.67,13.76 26.52,17.79 9.85,4.03 20.25,6.04 31.22,6.04 10.97,0 21.43,-2.01 31.38,-6.04 9.96,-4.03 18.85,-9.96 26.69,-17.79 10.52,-10.97 17.68,-23.61 21.48,-37.93l-108.76 0 10.07 -40.28 139.64 0z"/>
  <path class="fil1" d="M1406.06 75.91c11.64,0 22.6,2.24 32.89,6.71 10.29,4.48 19.24,10.52 26.85,18.13 7.61,7.61 13.65,16.5 18.13,26.69 4.48,10.18 6.71,21.09 6.71,32.73 0,11.64 -2.24,22.6 -6.71,32.89 -4.47,10.29 -10.52,19.24 -18.13,26.85 -7.61,7.61 -16.56,13.65 -26.85,18.13 -10.29,4.48 -21.26,6.71 -32.89,6.71l-33.57 0 16.45 -40.28 17.12 0c12.08,0 22.49,-4.36 31.22,-13.09 8.73,-8.73 13.09,-19.13 13.09,-31.22 0,-12.31 -4.36,-22.6 -13.09,-30.88 -8.73,-8.73 -19.13,-13.09 -31.22,-13.09l-47.33 0 0 194.69 -40.28 0 0 -234.97 87.61 0zm204.64 0l106.07 234.97 -44.31 0 -18.13 -40.28 0 0 -18.13 -40.28 0 0 -47.67 -105.4 -47.66 105.4 61.09 0 18.13 40.28 -97.34 0 -18.13 40.28 -44.31 0 106.07 -234.97 44.31 0zm220.42 0l47.67 0 -90.63 144.34 -3.69 5.71 0 5.37 0 79.55 -40.28 0 0 -84.92 -94.32 -150.04 47.66 0 66.8 106.41 66.8 -106.41z"/>
  <rect class="fil2" x="-0" width="1945.77" height="386.78"/>
 </g>
</svg>
