<?xml version="1.0" encoding="UTF-8"?>
<!DOCTYPE svg PUBLIC "-//W3C//DTD SVG 1.1//EN" "http://www.w3.org/Graphics/SVG/1.1/DTD/svg11.dtd">
<!-- Creator: CorelDRAW -->
<svg xmlns="http://www.w3.org/2000/svg" xml:space="preserve" width="121.649mm" height="121.649mm" version="1.1" style="shape-rendering:geometricPrecision; text-rendering:geometricPrecision; image-rendering:optimizeQuality; fill-rule:evenodd; clip-rule:evenodd"
viewBox="0 0 249.57 249.57"
 xmlns:xlink="http://www.w3.org/1999/xlink"
 xmlns:xodm="http://www.corel.com/coreldraw/odm/2003">
 <defs>
  <style type="text/css">
   <![CDATA[
    .str0 {stroke:#FEFEFE;stroke-width:6.15;stroke-miterlimit:22.9256}
    .str1 {stroke:#FEFEFE;stroke-width:0.41;stroke-miterlimit:22.9256}
    .fil1 {fill:#FEFEFE}
    .fil0 {fill:black}
   ]]>
  </style>
 </defs>
 <g id="Слой_x0020_1">
  <metadata id="CorelCorpID_0Corel-Layer"/>
  <g id="_2068628560672">
   <rect class="fil0 str0" x="3.08" y="3.08" width="243.41" height="243.41" rx="60.34" ry="60.34"/>
   <path class="fil1 str1" d="M132.45 157.59c6.13,-3.86 12.47,-7.03 18.87,-10.68 3.32,-1.9 5.23,-5.15 5.9,-9 0.74,-4.3 0.28,-13.02 0.26,-19.54 -0.04,-10.83 -2.05,-9.73 -10.82,-4.8 -5.32,2.99 -11.18,6.59 -16.49,9.55 -1.98,1.07 -3.77,1.86 -4.28,3.66 -1.48,5.32 1.72,9.61 7.12,6.79 5.72,-3.59 7.83,-4.58 7.5,1.7 0.09,4.44 -0.3,4.08 -7.02,7.88 -5.24,3.04 -7.32,3.93 -15.24,-0.74 -7.97,-4.7 -8.07,-4.21 -8.42,-10.42 -0.82,-14.45 -0.85,-11.82 10.72,-18.74 7.73,-4.62 16.99,-9.75 24.99,-14.3 6.9,-3.92 12.78,-8.88 21,-2.47 1.58,1.23 3.01,3.35 3.64,6.12 0.6,2.65 0.22,33.35 0.29,38.91 0.08,6.37 -1.23,10.12 -6.47,13.19l-24.85 14.45c-7.33,4.24 -13.14,9.04 -21.39,4.15 -7.1,-4.21 -14.71,-8.51 -21.81,-12.61l-9.3 -5.35c-2.66,-1.45 -3.4,-2.12 -5.04,-4.71 -1.16,-1.84 -2.19,-5.05 -1.98,-7.75 -0.19,-0.78 -0.16,-35.18 -0.14,-36.67 0.11,-9 6.43,-11.69 12.4,-15.09 6.81,-3.88 37.75,-22.01 40.99,-23.47 4.07,-1.83 8.49,-4.37 13.74,-4.71 -0.15,-0.96 -2.83,-2.06 -3.66,-2.59 -9.28,-5.96 -16.68,-10.25 -27.49,-4.63 -2.64,1.38 -5.28,3.01 -7.87,4.53l-31.51 18.18c-6.81,3.99 -13.38,6.21 -15.65,15.43 -0.79,3.21 -0.44,8.4 -0.48,11.97 -0.09,8.28 -0.04,16.62 -0.04,24.91 0,3.15 -0.39,23.29 0.54,24.37 0.15,3.74 3.75,8.64 6.2,10.57 2.32,1.83 38.82,22.43 44.09,25.51 4.45,2.65 8.93,5.59 14.51,5.26 6.42,-0.29 12.73,-4.75 18.71,-8.18 4.44,-2.55 10.91,-6.37 15.22,-8.69 5.01,-2.7 10.28,-6 15.2,-8.72 6,-3.33 10.13,-5.24 13.09,-10.81 1.65,-3.11 2.2,-5.66 2.22,-9.78l0 -47.82c-0.01,-4.03 0.29,-7.28 -1.1,-10.76 -2.74,-6.84 -6.77,-8.38 -12.22,-11.69 -3.92,-2.38 -11.55,-7.1 -15.89,-8.01 -8.04,-1.68 -14.65,3.44 -21.72,7.54l-34.03 19.78c-5.72,3.33 -11.18,5.04 -12.06,11.88 -0.24,1.87 -0.11,21.26 -0.13,23.81 -0.08,9.86 4.36,11.2 9.74,14.22 14.34,8.04 21.39,13.91 30.17,8.38z"/>
  </g>
 </g>
</svg>
